<svg width="329" height="147" viewBox="0 0 329 147" fill="none" xmlns="http://www.w3.org/2000/svg">
<path d="M4.60604 73.551C3.94217 73.551 3.38596 73.3447 2.9374 72.932C2.50678 72.5014 2.29147 71.9721 2.29147 71.3441C2.29147 70.7161 2.50678 70.1958 2.9374 69.7831C3.38596 69.3525 3.94217 69.1372 4.60604 69.1372C5.26991 69.1372 5.81716 69.3525 6.24778 69.7831C6.69634 70.1958 6.92062 70.7161 6.92062 71.3441C6.92062 71.9721 6.69634 72.5014 6.24778 72.932C5.81716 73.3447 5.26991 73.551 4.60604 73.551ZM6.46308 75.3273V90.2375H2.69518V75.3273H6.46308ZM9.2169 82.7824C9.2169 81.2394 9.53089 79.8937 10.1589 78.7454C10.7869 77.5791 11.6571 76.682 12.7695 76.054C13.8819 75.4081 15.1558 75.0851 16.5912 75.0851C18.4393 75.0851 19.9644 75.5516 21.1665 76.4846C22.3866 77.3997 23.203 78.6915 23.6157 80.3602H19.5517C19.3364 79.7143 18.9686 79.2119 18.4483 78.853C17.9459 78.4762 17.3179 78.2878 16.5643 78.2878C15.4878 78.2878 14.6355 78.6826 14.0075 79.472C13.3795 80.2436 13.0655 81.347 13.0655 82.7824C13.0655 84.1999 13.3795 85.3033 14.0075 86.0928C14.6355 86.8643 15.4878 87.2501 16.5643 87.2501C18.0894 87.2501 19.0852 86.5683 19.5517 85.2046H23.6157C23.203 86.8195 22.3866 88.1023 21.1665 89.0533C19.9465 90.0042 18.4214 90.4797 16.5912 90.4797C15.1558 90.4797 13.8819 90.1657 12.7695 89.5377C11.6571 88.8918 10.7869 87.9947 10.1589 86.8464C9.53089 85.6801 9.2169 84.3255 9.2169 82.7824ZM25.4071 82.7286C25.4071 81.2214 25.7032 79.8847 26.2953 78.7185C26.9053 77.5522 27.7217 76.6551 28.7444 76.0271C29.7851 75.3991 30.9424 75.0851 32.2163 75.0851C33.3287 75.0851 34.2976 75.3094 35.123 75.758C35.9662 76.2065 36.6391 76.7717 37.1415 77.4535V75.3273H40.9363V90.2375H37.1415V88.0575C36.657 88.7572 35.9842 89.3404 35.123 89.8069C34.2797 90.2554 33.3018 90.4797 32.1894 90.4797C30.9334 90.4797 29.7851 90.1567 28.7444 89.5108C27.7217 88.8649 26.9053 87.9588 26.2953 86.7925C25.7032 85.6083 25.4071 84.2537 25.4071 82.7286ZM37.1415 82.7824C37.1415 81.8673 36.962 81.0869 36.6032 80.4409C36.2444 79.7771 35.7599 79.2747 35.1499 78.9338C34.5398 78.5749 33.8849 78.3955 33.1852 78.3955C32.4854 78.3955 31.8395 78.5659 31.2474 78.9068C30.6553 79.2478 30.1708 79.7501 29.7941 80.414C29.4352 81.0599 29.2558 81.8315 29.2558 82.7286C29.2558 83.6257 29.4352 84.4152 29.7941 85.097C30.1708 85.7609 30.6553 86.2722 31.2474 86.6311C31.8574 86.9899 32.5034 87.1693 33.1852 87.1693C33.8849 87.1693 34.5398 86.9989 35.1499 86.658C35.7599 86.2991 36.2444 85.7967 36.6032 85.1508C36.962 84.4869 37.1415 83.6975 37.1415 82.7824ZM48.3842 77.6419C48.8687 76.8524 49.4967 76.2334 50.2682 75.7849C51.0576 75.3363 51.9548 75.112 52.9595 75.112V79.0683H51.9637C50.7795 79.0683 49.8824 79.3464 49.2724 79.9027C48.6803 80.4589 48.3842 81.4278 48.3842 82.8093V90.2375H44.6163V75.3273H48.3842V77.6419ZM69.5732 75.3273V90.2375H65.7784V88.3535C65.294 88.9995 64.657 89.5108 63.8676 89.8876C63.096 90.2465 62.2527 90.4259 61.3377 90.4259C60.1714 90.4259 59.1397 90.1837 58.2426 89.6992C57.3455 89.1968 56.6368 88.4702 56.1164 87.5192C55.614 86.5503 55.3628 85.402 55.3628 84.0743V75.3273H59.1308V83.536C59.1308 84.7202 59.4268 85.6353 60.0189 86.2812C60.611 86.9092 61.4184 87.2232 62.4411 87.2232C63.4818 87.2232 64.2982 86.9092 64.8903 86.2812C65.4824 85.6353 65.7784 84.7202 65.7784 83.536V75.3273H69.5732ZM78.9966 90.4797C77.7765 90.4797 76.682 90.2644 75.7131 89.8338C74.7442 89.3852 73.9727 88.7842 73.3986 88.0306C72.8423 87.277 72.5373 86.4427 72.4835 85.5276H76.2783C76.3501 86.1018 76.6282 86.5772 77.1126 86.954C77.615 87.3308 78.234 87.5192 78.9697 87.5192C79.6874 87.5192 80.2436 87.3757 80.6383 87.0886C81.051 86.8015 81.2573 86.4337 81.2573 85.9851C81.2573 85.5007 81.0061 85.1418 80.5038 84.9086C80.0193 84.6574 79.2388 84.3883 78.1623 84.1012C77.0498 83.832 76.1348 83.5539 75.4171 83.2669C74.7173 82.9798 74.1073 82.5402 73.587 81.9481C73.0846 81.356 72.8334 80.5576 72.8334 79.5528C72.8334 78.7274 73.0666 77.9738 73.5331 77.292C74.0176 76.6102 74.6994 76.0719 75.5786 75.6772C76.4757 75.2825 77.5253 75.0851 78.7275 75.0851C80.5038 75.0851 81.9212 75.5337 82.9798 76.4308C84.0384 77.31 84.6215 78.5031 84.7292 80.0103H81.1228C81.0689 79.4182 80.8177 78.9517 80.3692 78.6108C79.9386 78.2519 79.3554 78.0725 78.6198 78.0725C77.938 78.0725 77.4087 78.1981 77.0319 78.4493C76.673 78.7005 76.4936 79.0504 76.4936 79.4989C76.4936 80.0013 76.7448 80.3871 77.2472 80.6562C77.7496 80.9074 78.5301 81.1676 79.5887 81.4367C80.6652 81.7059 81.5534 81.984 82.2531 82.2711C82.9529 82.5581 83.554 83.0067 84.0564 83.6167C84.5767 84.2088 84.8458 84.9983 84.8638 85.9851C84.8638 86.8464 84.6215 87.6179 84.1371 88.2997C83.6706 88.9815 82.9888 89.5198 82.0917 89.9145C81.2125 90.2913 80.1808 90.4797 78.9966 90.4797ZM89.6254 90.4259C88.9436 90.4259 88.3784 90.2195 87.9298 89.8069C87.4992 89.3763 87.2839 88.8469 87.2839 88.219C87.2839 87.591 87.4992 87.0707 87.9298 86.658C88.3784 86.2274 88.9436 86.012 89.6254 86.012C90.2892 86.012 90.8365 86.2274 91.2671 86.658C91.6977 87.0707 91.913 87.591 91.913 88.219C91.913 88.8469 91.6977 89.3763 91.2671 89.8069C90.8365 90.2195 90.2892 90.4259 89.6254 90.4259ZM100.788 75.0851C101.901 75.0851 102.879 75.3094 103.722 75.758C104.565 76.1886 105.229 76.7538 105.713 77.4535V75.3273H109.508V90.3451C109.508 91.7267 109.23 92.9558 108.674 94.0323C108.118 95.1268 107.283 95.988 106.171 96.616C105.059 97.2619 103.713 97.5849 102.134 97.5849C100.017 97.5849 98.2763 97.0915 96.9127 96.1047C95.567 95.1178 94.8044 93.7721 94.625 92.0676H98.366C98.5634 92.7494 98.985 93.2877 99.6309 93.6824C100.295 94.0951 101.093 94.3014 102.026 94.3014C103.121 94.3014 104.009 93.9695 104.691 93.3056C105.373 92.6597 105.713 91.6729 105.713 90.3451V88.0306C105.229 88.7303 104.556 89.3135 103.695 89.78C102.852 90.2465 101.883 90.4797 100.788 90.4797C99.5322 90.4797 98.3839 90.1567 97.3433 89.5108C96.3026 88.8649 95.4773 87.9588 94.8672 86.7925C94.2751 85.6083 93.9791 84.2537 93.9791 82.7286C93.9791 81.2214 94.2751 79.8847 94.8672 78.7185C95.4773 77.5522 96.2936 76.6551 97.3164 76.0271C98.357 75.3991 99.5143 75.0851 100.788 75.0851ZM105.713 82.7824C105.713 81.8673 105.534 81.0869 105.175 80.4409C104.816 79.7771 104.332 79.2747 103.722 78.9338C103.112 78.5749 102.457 78.3955 101.757 78.3955C101.057 78.3955 100.411 78.5659 99.8193 78.9068C99.2272 79.2478 98.7428 79.7501 98.366 80.414C98.0071 81.0599 97.8277 81.8315 97.8277 82.7286C97.8277 83.6257 98.0071 84.4152 98.366 85.097C98.7428 85.7609 99.2272 86.2722 99.8193 86.6311C100.429 86.9899 101.075 87.1693 101.757 87.1693C102.457 87.1693 103.112 86.9989 103.722 86.658C104.332 86.2991 104.816 85.7967 105.175 85.1508C105.534 84.4869 105.713 83.6975 105.713 82.7824ZM122.016 90.2375L116.956 83.8859V90.2375H113.188V70.3214H116.956V81.652L121.962 75.3273H126.86L120.293 82.8093L126.914 90.2375H122.016Z" fill="#151515"/>
<path d="M71.5036 56.2276L72.0571 57.3348C74.3425 56.6251 76.5994 55.5889 78.1608 54.6236C79.8215 53.5874 81.3119 52.3951 82.5327 51.1318L81.5816 50.2375C80.6022 51.4299 79.1828 52.6506 77.6923 53.5874C76.1168 54.5669 73.9592 55.5747 71.5036 56.2276ZM77.4652 54.1694V60.2872C77.4652 60.8124 77.4227 61.5221 77.3801 61.7918H78.7853C78.7143 61.5221 78.686 60.8124 78.686 60.2872V53.8004L77.4652 54.1694ZM91.6739 50.195H90.3538C90.4106 50.5214 90.439 51.0466 90.439 51.3731C90.4106 55.8585 89.2466 58.2574 87.4723 59.8614C87.0465 60.2588 86.4787 60.6563 86.0245 60.8976L87.0607 61.7351C89.857 59.7904 91.4184 57.1361 91.6029 51.3447C91.6171 51.004 91.6455 50.5214 91.6739 50.195ZM96.6136 53.1474L95.8045 52.7358C95.5632 52.7784 95.2935 52.8067 94.9102 52.8067H87.8982C87.3446 52.8067 86.7626 52.7784 86.2658 52.7358V53.9281C86.7768 53.8855 87.3446 53.8713 87.9124 53.8713H95.3928C95.3928 55.3901 95.2083 58.882 94.6689 59.9749C94.5128 60.3156 94.2431 60.4434 93.8456 60.4434C93.2353 60.4434 92.4972 60.3724 91.7307 60.273L91.8726 61.4512C92.6107 61.5079 93.434 61.5505 94.1437 61.5505C94.9244 61.5505 95.3786 61.295 95.6625 60.6847C96.3013 59.322 96.4858 55.2056 96.5284 53.8287C96.5426 53.6442 96.571 53.3887 96.6136 53.1474ZM100.744 51.6286C100.758 51.9835 100.758 52.4093 100.758 52.7358C100.758 53.2894 100.758 59.1517 100.758 59.7336C100.758 60.2304 100.73 61.2666 100.73 61.4512H101.936C101.936 61.2666 101.922 60.3582 101.922 59.8898C101.922 59.3078 101.922 52.7784 101.922 52.7784H109.672C109.672 52.7784 109.672 59.3646 109.672 59.8898C109.672 60.4859 109.658 61.295 109.644 61.4512H110.879C110.865 61.295 110.851 60.1879 110.851 59.7336C110.851 59.1942 110.851 53.4029 110.851 52.7358C110.851 52.3809 110.851 51.9835 110.879 51.6428C110.439 51.657 109.928 51.657 109.63 51.657C108.934 51.657 102.76 51.657 102.007 51.657C101.667 51.657 101.298 51.657 100.744 51.6286ZM110.141 59.5349H101.355V60.6421H110.141V59.5349ZM124.208 51.8699L123.498 51.3163C123.271 51.3873 122.888 51.4299 122.433 51.4299C121.894 51.4299 117.508 51.4299 116.954 51.4299C116.514 51.4299 115.705 51.3731 115.521 51.3447V52.6222C115.677 52.608 116.443 52.5512 116.954 52.5512C117.437 52.5512 121.979 52.5512 122.49 52.5512C122.121 53.7294 121.085 55.4185 120.12 56.5115C118.658 58.1297 116.571 59.833 114.271 60.7131L115.18 61.6641C117.423 60.6421 119.452 58.9529 121.042 57.1786C122.22 55.8727 123.299 53.8855 123.867 52.4803C123.938 52.2957 124.122 51.9835 124.208 51.8699ZM121.227 56.4405L120.418 57.2354C121.951 58.5839 123.611 60.4008 124.633 61.7493L125.613 60.8834C124.648 59.7052 122.76 57.718 121.227 56.4405Z" fill="#151515"/>
<path d="M159.476 106.177C159.476 106.177 143.572 40.3947 216.888 34.3542C286.571 28.6156 316.462 3 316.462 3C316.462 3 295.058 42.6176 245.063 50.8806C195.068 59.1436 188.711 68.04 188.711 68.04C188.711 68.04 207.155 59.2788 231.123 56.2833C256.546 53.1035 283.717 40.3947 283.717 40.3947C283.717 40.3947 267.939 65.4984 239.131 72.1715C210.321 78.8451 193.797 92.1917 193.797 92.1917C193.797 92.1917 223.174 78.7963 235.173 75.9844C251.444 72.1715 266.887 62.0023 266.887 62.0023C266.887 62.0023 251.635 85.8373 225.258 94.1007C198.881 102.364 187.684 110.702 185.496 122.423C183.309 134.141 187.017 141 187.017 141C187.017 141 163.289 127.786 159.476 106.177Z" fill="#151515"/>
<path d="M169.287 106.177C169.287 106.177 153.383 40.3947 226.699 34.3542C296.382 28.6156 326.273 3 326.273 3C326.273 3 304.869 42.6176 254.874 50.8806C204.879 59.1436 198.522 68.04 198.522 68.04C198.522 68.04 216.966 59.2788 240.934 56.2833C266.357 53.1035 293.528 40.3947 293.528 40.3947C293.528 40.3947 277.75 65.4984 248.942 72.1715C220.132 78.8451 203.608 92.1917 203.608 92.1917C203.608 92.1917 232.985 78.7963 244.984 75.9844C261.255 72.1715 276.698 62.0023 276.698 62.0023C276.698 62.0023 261.446 85.8373 235.069 94.1007C208.692 102.364 197.495 110.702 195.307 122.423C193.12 134.141 196.828 141 196.828 141C196.828 141 173.099 127.786 169.287 106.177Z" fill="#FF4B4C"/>
<path d="M169.287 106.177L171.305 105.689L171.32 105.752L171.332 105.816L169.287 106.177ZM226.699 34.3542L226.528 32.2849L226.529 32.2849L226.699 34.3542ZM326.273 3L324.922 1.42342C325.682 0.772293 326.798 0.755707 327.577 1.38396C328.355 2.01221 328.575 3.10657 328.1 3.98692L326.273 3ZM254.874 50.8806L254.535 48.8321H254.535L254.874 50.8806ZM198.522 68.04L199.413 69.9155C198.558 70.3215 197.537 70.0983 196.93 69.3727C196.323 68.6472 196.283 67.6028 196.833 66.8329L198.522 68.04ZM240.934 56.2833L241.192 58.3436L241.192 58.3436L240.934 56.2833ZM293.528 40.3947L292.648 38.5139C293.483 38.1237 294.474 38.3298 295.084 39.02C295.694 39.7103 295.776 40.7198 295.286 41.4996L293.528 40.3947ZM248.942 72.1716L249.411 74.1943H249.411L248.942 72.1716ZM203.608 92.1917L204.47 94.0809C203.518 94.5148 202.392 94.1731 201.842 93.2833C201.292 92.3936 201.49 91.2337 202.304 90.5764L203.608 92.1917ZM244.984 75.9844L244.51 73.9628L244.51 73.9628L244.984 75.9844ZM276.698 62.0023L275.557 60.2682C276.375 59.7291 277.459 59.836 278.157 60.5246C278.855 61.2132 278.976 62.2959 278.447 63.1215L276.698 62.0023ZM235.069 94.1007L235.689 96.082L235.689 96.082L235.069 94.1007ZM195.307 122.423L197.348 122.804L197.348 122.804L195.307 122.423ZM196.828 141L198.655 140.013L202.044 146.281L195.818 142.814L196.828 141ZM169.287 106.177C167.269 106.664 167.268 106.663 167.268 106.662C167.268 106.661 167.267 106.659 167.267 106.657C167.266 106.654 167.265 106.649 167.264 106.644C167.261 106.633 167.258 106.618 167.253 106.599C167.245 106.562 167.232 106.509 167.217 106.44C167.187 106.304 167.144 106.106 167.092 105.851C166.988 105.342 166.848 104.604 166.697 103.668C166.396 101.798 166.052 99.132 165.874 95.9181C165.52 89.5038 165.826 80.8341 168.511 71.9309C171.203 63.0069 176.295 53.8275 185.505 46.5C194.712 39.1751 207.882 33.8211 226.528 32.2849L226.869 36.4235C208.858 37.9075 196.522 43.0414 188.091 49.7496C179.663 56.455 174.984 64.8537 172.487 73.1302C169.984 81.4275 169.684 89.5808 170.021 95.6893C170.189 98.7368 170.515 101.257 170.797 103.008C170.938 103.883 171.067 104.564 171.161 105.021C171.207 105.25 171.245 105.422 171.27 105.535C171.282 105.591 171.292 105.632 171.298 105.658C171.301 105.671 171.303 105.68 171.304 105.685C171.305 105.688 171.305 105.689 171.305 105.69C171.305 105.69 171.305 105.69 171.305 105.69C171.305 105.689 171.305 105.689 169.287 106.177ZM226.529 32.2849C261.138 29.4347 285.806 21.6541 301.781 14.6247C309.77 11.1092 315.589 7.77934 319.394 5.34346C321.297 4.12544 322.696 3.13078 323.611 2.44795C324.068 2.10654 324.404 1.84308 324.622 1.66864C324.731 1.58142 324.81 1.51645 324.86 1.47511C324.885 1.45445 324.903 1.4397 324.913 1.43102C324.918 1.42668 324.921 1.42387 324.923 1.42259C324.924 1.42195 324.924 1.42171 324.924 1.42184C324.924 1.42191 324.923 1.4223 324.923 1.42233C324.923 1.42284 324.922 1.42342 326.273 3C327.624 4.57658 327.623 4.57736 327.622 4.57825C327.622 4.57867 327.62 4.57965 327.619 4.58051C327.617 4.5822 327.615 4.58427 327.612 4.58675C327.606 4.59169 327.599 4.59816 327.589 4.60616C327.57 4.62215 327.544 4.64423 327.51 4.6722C327.443 4.72815 327.345 4.80772 327.218 4.90952C326.964 5.1131 326.59 5.40558 326.094 5.7758C325.102 6.51625 323.622 7.56763 321.633 8.84074C317.656 11.3871 311.648 14.8198 303.453 18.4256C287.062 25.6386 261.943 33.535 226.869 36.4235L226.529 32.2849ZM326.273 3C328.1 3.98692 328.099 3.98787 328.099 3.98897C328.098 3.98953 328.098 3.99078 328.097 3.99191C328.096 3.99419 328.094 3.99706 328.092 4.00052C328.089 4.00745 328.083 4.01678 328.077 4.02847C328.064 4.05185 328.046 4.08467 328.023 4.12665C327.976 4.2106 327.907 4.33124 327.818 4.48637C327.638 4.79665 327.373 5.245 327.019 5.81401C326.313 6.95189 325.254 8.57327 323.828 10.5385C320.978 14.4675 316.656 19.7798 310.746 25.3524C298.923 36.4996 280.711 48.7148 255.212 52.9291L254.535 48.8321C279.032 44.7834 296.52 33.0583 307.897 22.331C313.587 16.9662 317.741 11.8577 320.467 8.10022C321.829 6.22218 322.833 4.6839 323.492 3.62291C323.821 3.0925 324.064 2.68161 324.223 2.4075C324.302 2.27046 324.36 2.16762 324.397 2.10117C324.416 2.06793 324.429 2.04379 324.437 2.02902C324.442 2.02164 324.444 2.0166 324.446 2.01393C324.446 2.01259 324.447 2.01186 324.447 2.0117C324.447 2.01164 324.447 2.01198 324.447 2.01195C324.447 2.01244 324.446 2.01308 326.273 3ZM255.212 52.9291C230.303 57.046 216.385 61.3025 208.747 64.4763C204.931 66.0615 202.714 67.3641 201.487 68.2223C200.874 68.6505 200.514 68.9643 200.327 69.1428C200.234 69.2319 200.184 69.2869 200.169 69.3052C200.161 69.3143 200.161 69.3142 200.169 69.3047C200.172 69.2999 200.178 69.2927 200.185 69.2831C200.189 69.2784 200.193 69.273 200.197 69.267C200.199 69.264 200.202 69.2608 200.204 69.2575C200.205 69.2559 200.207 69.2533 200.208 69.2524C200.21 69.2498 200.212 69.2472 198.522 68.04C196.833 66.8329 196.835 66.8302 196.837 66.8274C196.837 66.8265 196.839 66.8237 196.841 66.8218C196.844 66.8179 196.847 66.8139 196.849 66.8099C196.855 66.8017 196.862 66.7931 196.869 66.784C196.882 66.7658 196.898 66.7457 196.915 66.7239C196.95 66.6801 196.992 66.6291 197.043 66.5711C197.145 66.455 197.28 66.3108 197.459 66.1405C197.815 65.8002 198.342 65.3544 199.107 64.8194C200.634 63.7513 203.13 62.3134 207.153 60.6416C215.192 57.3015 229.449 52.9782 254.535 48.8321L255.212 52.9291ZM198.522 68.04C197.631 66.1646 197.632 66.1644 197.632 66.1642C197.632 66.164 197.633 66.1638 197.633 66.1635C197.634 66.163 197.636 66.1624 197.637 66.1617C197.641 66.1602 197.645 66.1582 197.65 66.1556C197.661 66.1505 197.676 66.1434 197.696 66.1341C197.735 66.1157 197.792 66.0892 197.867 66.055C198.015 65.9865 198.233 65.8873 198.517 65.761C199.084 65.5083 199.916 65.1468 200.986 64.705C203.127 63.8216 206.225 62.6163 210.077 61.3175C217.775 58.7218 228.518 55.7426 240.677 54.223L241.192 58.3436C229.382 59.8195 218.919 62.7186 211.403 65.2525C207.649 66.5184 204.637 67.6906 202.571 68.5436C201.537 68.97 200.741 69.3164 200.206 69.5545C199.939 69.6736 199.737 69.7655 199.604 69.8269C199.537 69.8576 199.488 69.8806 199.456 69.8955C199.44 69.903 199.428 69.9084 199.421 69.9117C199.417 69.9134 199.415 69.9146 199.414 69.9152C199.413 69.9155 199.413 69.9157 199.413 69.9158C199.412 69.9158 199.413 69.9157 199.413 69.9157C199.413 69.9156 199.413 69.9155 198.522 68.04ZM240.676 54.2231C253.171 52.6603 266.156 48.7441 276.064 45.1921C281.007 43.4198 285.162 41.7462 288.079 40.5168C289.537 39.9023 290.684 39.3993 291.465 39.0509C291.855 38.8768 292.153 38.7413 292.353 38.65C292.453 38.6044 292.528 38.5697 292.577 38.5468C292.602 38.5354 292.621 38.5269 292.632 38.5213C292.638 38.5186 292.643 38.5166 292.645 38.5154C292.647 38.5147 292.648 38.5143 292.648 38.5141C292.648 38.514 292.648 38.5139 292.648 38.5139C292.648 38.5139 292.648 38.5139 293.528 40.3947C294.408 42.2755 294.407 42.2756 294.407 42.2758C294.407 42.276 294.406 42.2762 294.405 42.2765C294.404 42.277 294.403 42.2778 294.401 42.2787C294.397 42.2805 294.391 42.2831 294.384 42.2865C294.37 42.2932 294.349 42.303 294.321 42.3157C294.266 42.3411 294.186 42.3782 294.08 42.4264C293.869 42.5228 293.559 42.6635 293.157 42.8431C292.352 43.2022 291.178 43.7168 289.692 44.3434C286.719 45.5964 282.492 47.2987 277.465 49.1011C267.431 52.6985 254.12 56.7265 241.192 58.3436L240.676 54.2231ZM293.528 40.3947C295.286 41.4996 295.285 41.5003 295.285 41.5011C295.285 41.5015 295.284 41.5023 295.284 41.5031C295.283 41.5047 295.281 41.5067 295.28 41.509C295.277 41.5137 295.273 41.5198 295.268 41.5275C295.258 41.5429 295.245 41.5642 295.227 41.5914C295.192 41.6458 295.142 41.7234 295.076 41.8231C294.944 42.0223 294.751 42.3095 294.497 42.6739C293.989 43.4027 293.237 44.4411 292.246 45.7035C290.265 48.2267 287.324 51.6531 283.462 55.2918C275.751 62.5576 264.289 70.748 249.411 74.1943L248.474 70.1488C262.404 66.922 273.234 59.224 280.614 52.2696C284.298 48.7982 287.102 45.5316 288.979 43.1394C289.918 41.944 290.623 40.9691 291.091 40.2989C291.324 39.9639 291.498 39.7052 291.612 39.5334C291.668 39.4476 291.71 39.3835 291.736 39.3424C291.75 39.3219 291.759 39.3071 291.765 39.2983C291.767 39.2939 291.769 39.291 291.77 39.2896C291.771 39.2888 291.771 39.2885 291.771 39.2886C291.771 39.2886 291.771 39.2889 291.771 39.2889C291.77 39.2893 291.77 39.2898 293.528 40.3947ZM249.411 74.1943C235.216 77.4823 224.056 82.4126 216.457 86.5116C212.658 88.5607 209.752 90.4005 207.805 91.7206C206.832 92.3805 206.099 92.9103 205.614 93.2711C205.371 93.4514 205.191 93.5895 205.074 93.6805C205.015 93.7259 204.972 93.7596 204.945 93.7809C204.932 93.7915 204.923 93.7991 204.917 93.8034C204.914 93.8056 204.913 93.807 204.912 93.8076C204.912 93.8079 204.911 93.808 204.912 93.8079C204.912 93.8078 204.912 93.8076 204.912 93.8075C204.912 93.8073 204.913 93.8069 203.608 92.1917C202.304 90.5764 202.304 90.576 202.305 90.5755C202.305 90.5753 202.306 90.5747 202.306 90.5743C202.307 90.5734 202.309 90.5722 202.31 90.5709C202.314 90.5683 202.318 90.5648 202.323 90.5605C202.334 90.552 202.349 90.5403 202.367 90.5255C202.405 90.4959 202.458 90.4538 202.528 90.3999C202.667 90.292 202.87 90.1369 203.135 89.9393C203.666 89.5441 204.449 88.979 205.475 88.2834C207.527 86.8925 210.552 84.9785 214.486 82.8568C222.351 78.614 233.858 73.5343 248.474 70.1488L249.411 74.1943ZM203.608 92.1917C202.747 90.3025 202.747 90.3024 202.747 90.3023C202.747 90.3022 202.748 90.302 202.748 90.3018C202.749 90.3013 202.751 90.3007 202.753 90.2998C202.756 90.2981 202.762 90.2956 202.769 90.2923C202.784 90.2856 202.805 90.2758 202.834 90.263C202.89 90.2372 202.974 90.199 203.084 90.1493C203.304 90.0497 203.627 89.9037 204.042 89.717C204.873 89.3436 206.071 88.8075 207.547 88.1555C210.497 86.852 214.557 85.084 218.995 83.2271C227.808 79.5399 238.313 75.4151 244.51 73.9628L245.457 78.0059C239.656 79.3655 229.473 83.3444 220.598 87.0579C216.192 88.9014 212.158 90.6579 209.225 91.9539C207.759 92.6017 206.569 93.1341 205.745 93.5042C205.334 93.6893 205.014 93.8338 204.798 93.9319C204.69 93.9809 204.607 94.0183 204.552 94.0434C204.524 94.0559 204.504 94.0654 204.49 94.0716C204.483 94.0748 204.478 94.0771 204.474 94.0787C204.473 94.0794 204.471 94.08 204.471 94.0804C204.47 94.0806 204.47 94.0807 204.47 94.0808C204.47 94.0808 204.47 94.0809 203.608 92.1917ZM244.51 73.9628C252.415 72.1104 260.175 68.6967 265.996 65.7155C268.898 64.2295 271.298 62.8613 272.969 61.8666C273.805 61.3695 274.457 60.9662 274.898 60.689C275.118 60.5504 275.286 60.4434 275.397 60.3719C275.452 60.3362 275.494 60.3093 275.52 60.2919C275.534 60.2831 275.544 60.2768 275.55 60.2728C275.553 60.2708 275.555 60.2694 275.556 60.2687C275.556 60.2683 275.557 60.2681 275.557 60.268C275.557 60.2679 275.557 60.268 275.557 60.268C275.557 60.2681 275.557 60.2682 276.698 62.0023C277.84 63.7365 277.84 63.7367 277.84 63.7369C277.839 63.7371 277.839 63.7373 277.839 63.7376C277.838 63.7382 277.837 63.7389 277.835 63.7397C277.833 63.7414 277.829 63.7437 277.825 63.7466C277.816 63.7525 277.803 63.7608 277.787 63.7714C277.754 63.7926 277.707 63.8234 277.645 63.863C277.522 63.9424 277.342 64.0575 277.108 64.2044C276.641 64.4982 275.96 64.9193 275.093 65.4351C273.36 66.4663 270.882 67.8787 267.889 69.4116C261.921 72.4682 253.824 76.0455 245.457 78.0059L244.51 73.9628ZM276.698 62.0023C278.447 63.1215 278.447 63.1221 278.446 63.1228C278.446 63.1232 278.446 63.124 278.445 63.1247C278.444 63.1262 278.443 63.128 278.442 63.1301C278.439 63.1345 278.435 63.1403 278.431 63.1475C278.421 63.1618 278.408 63.1819 278.392 63.2076C278.358 63.2588 278.31 63.3323 278.246 63.4267C278.12 63.6154 277.935 63.8882 277.691 64.2351C277.204 64.929 276.485 65.9205 275.541 67.132C273.653 69.5537 270.862 72.8622 267.231 76.4332C259.982 83.5605 249.3 91.8181 235.689 96.082L234.448 92.1193C247.214 88.1199 257.347 80.3283 264.319 73.4723C267.798 70.0516 270.469 66.8848 272.265 64.5793C273.163 63.4272 273.842 62.492 274.292 61.8501C274.517 61.5292 274.685 61.2818 274.795 61.1174C274.85 61.0352 274.891 60.9738 274.916 60.9344C274.929 60.9146 274.938 60.9004 274.944 60.8918C274.947 60.8875 274.949 60.8847 274.95 60.8832C274.95 60.8825 274.95 60.8821 274.95 60.8821C274.95 60.8821 274.95 60.8824 274.95 60.8824C274.95 60.8827 274.95 60.8832 276.698 62.0023ZM235.689 96.082C222.572 100.191 213.429 104.262 207.33 108.651C201.294 112.993 198.324 117.578 197.348 122.804L193.266 122.042C194.478 115.547 198.2 110.103 204.904 105.28C211.544 100.503 221.188 96.2732 234.448 92.1193L235.689 96.082ZM197.348 122.804C196.308 128.376 196.677 132.748 197.281 135.688C197.584 137.16 197.947 138.277 198.224 139.009C198.363 139.374 198.481 139.644 198.558 139.812C198.597 139.897 198.626 139.956 198.643 139.989C198.652 140.006 198.657 140.016 198.659 140.02C198.66 140.022 198.66 140.023 198.659 140.021C198.659 140.021 198.659 140.02 198.658 140.018C198.657 140.017 198.657 140.017 198.656 140.016C198.656 140.015 198.656 140.014 198.656 140.014C198.655 140.013 198.655 140.013 196.828 141C195.002 141.987 195.001 141.987 195.001 141.986C195.001 141.985 195 141.984 195 141.984C194.999 141.982 194.998 141.981 194.997 141.979C194.996 141.976 194.994 141.973 194.992 141.969C194.987 141.961 194.982 141.951 194.976 141.94C194.965 141.917 194.949 141.887 194.931 141.851C194.895 141.778 194.846 141.679 194.788 141.553C194.672 141.3 194.516 140.942 194.342 140.482C193.992 139.561 193.565 138.231 193.214 136.524C192.511 133.105 192.119 128.188 193.266 122.042L197.348 122.804ZM196.828 141C195.818 142.814 195.817 142.814 195.817 142.813C195.816 142.813 195.816 142.813 195.815 142.812C195.813 142.811 195.812 142.81 195.809 142.809C195.805 142.807 195.799 142.803 195.792 142.799C195.777 142.791 195.757 142.78 195.732 142.765C195.681 142.736 195.607 142.694 195.514 142.639C195.326 142.53 195.056 142.369 194.714 142.159C194.03 141.738 193.057 141.118 191.882 140.307C189.534 138.686 186.364 136.295 183.068 133.207C176.513 127.066 169.261 117.979 167.242 106.537L171.332 105.816C173.125 115.983 179.644 124.308 185.907 130.177C189.02 133.093 192.02 135.356 194.24 136.889C195.349 137.654 196.26 138.235 196.889 138.621C197.203 138.814 197.446 138.959 197.608 139.053C197.689 139.101 197.75 139.135 197.788 139.158C197.808 139.169 197.822 139.177 197.83 139.181C197.834 139.184 197.837 139.185 197.839 139.186C197.839 139.186 197.84 139.187 197.84 139.187C197.84 139.187 197.839 139.186 197.839 139.186C197.839 139.186 197.838 139.186 196.828 141Z" fill="#151515"/>
</svg>
